<?xml version="1.0" encoding="utf-8"?><!-- Uploaded to: SVG Repo, www.svgrepo.com, Generator: SVG Repo Mixer Tools -->
<svg width="800px" height="800px" viewBox="0 0 64 64" xmlns="http://www.w3.org/2000/svg" stroke-width="3" stroke="#000000" fill="none"><path d="M43.12,58H20.88a2.33,2.33,0,0,1-2.33-2.33V28.89a1.15,1.15,0,0,1,.37-.85L30.73,17a1.16,1.16,0,0,1,1.56,0L45.05,28a1.18,1.18,0,0,1,.4.88V55.7A2.33,2.33,0,0,1,43.12,58Z" stroke-linecap="round"/><path d="M32,25.2c-4.39,0-7.95-4.31-7.95-9.62S27.61,6,32,6s8,4.3,8,9.61" stroke-linecap="round"/><path d="M39.78,46.88a8.1,8.1,0,1,1-1.53-13.8"/><line x1="22.68" y1="38.07" x2="36.17" y2="38.07"/><line x1="22.68" y1="43.12" x2="34.54" y2="43.12"/></svg>